<?xml version="1.0" encoding="UTF-8" standalone="no"?>
<!DOCTYPE svg PUBLIC "-//W3C//DTD SVG 1.1//EN"
 "http://www.w3.org/Graphics/SVG/1.1/DTD/svg11.dtd">
<!-- Generated by graphviz version 9.0.0 (20230911.1827)
 -->
<!-- Pages: 1 -->
<svg width="1776pt" height="210pt"
 viewBox="0.00 0.00 1775.75 210.00" xmlns="http://www.w3.org/2000/svg" xmlns:xlink="http://www.w3.org/1999/xlink">
<g id="graph0" class="graph" transform="scale(1 1) rotate(0) translate(4 206)">
<polygon fill="white" stroke="none" points="-4,4 -4,-206 1771.75,-206 1771.75,4 -4,4"/>
<!-- 2862154515456 -->
<g id="node1" class="node">
<title>2862154515456</title>
<polygon fill="none" stroke="black" points="1459.5,-54.5 1459.5,-90.5 1767.75,-90.5 1767.75,-54.5 1459.5,-54.5"/>
<text text-anchor="middle" x="1532.38" y="-67.2" font-family="Times New Roman,serif" font-size="14.00">tanh(x1*w1+x2*w2+b)</text>
<polyline fill="none" stroke="black" points="1605.25,-54.75 1605.25,-90.5"/>
<text text-anchor="middle" x="1645.5" y="-67.2" font-family="Times New Roman,serif" font-size="14.00">data 0.9951</text>
<polyline fill="none" stroke="black" points="1685.75,-54.75 1685.75,-90.5"/>
<text text-anchor="middle" x="1726.75" y="-67.2" font-family="Times New Roman,serif" font-size="14.00">grad 1.0000</text>
</g>
<!-- 2862154515456tanh -->
<g id="node2" class="node">
<title>2862154515456tanh</title>
<ellipse fill="none" stroke="black" cx="1396.5" cy="-72.5" rx="27" ry="18"/>
<text text-anchor="middle" x="1396.5" y="-67.08" font-family="Times New Roman,serif" font-size="14.00">tanh</text>
</g>
<!-- 2862154515456tanh&#45;&gt;2862154515456 -->
<g id="edge1" class="edge">
<title>2862154515456tanh&#45;&gt;2862154515456</title>
<path fill="none" stroke="black" d="M1423.88,-72.5C1430.82,-72.5 1438.84,-72.5 1447.58,-72.5"/>
<polygon fill="black" stroke="black" points="1447.49,-76 1457.49,-72.5 1447.49,-69 1447.49,-76"/>
</g>
<!-- 2862153643008 -->
<g id="node3" class="node">
<title>2862153643008</title>
<polygon fill="none" stroke="black" points="671.25,-82.5 671.25,-118.5 931.5,-118.5 931.5,-82.5 671.25,-82.5"/>
<text text-anchor="middle" x="720.12" y="-95.2" font-family="Times New Roman,serif" font-size="14.00">x1*w1+x2*w2</text>
<polyline fill="none" stroke="black" points="769,-82.75 769,-118.5"/>
<text text-anchor="middle" x="809.25" y="-95.2" font-family="Times New Roman,serif" font-size="14.00">data 1.5000</text>
<polyline fill="none" stroke="black" points="849.5,-82.75 849.5,-118.5"/>
<text text-anchor="middle" x="890.5" y="-95.2" font-family="Times New Roman,serif" font-size="14.00">grad 0.0099</text>
</g>
<!-- 2862154515216+ -->
<g id="node8" class="node">
<title>2862154515216+</title>
<ellipse fill="none" stroke="black" cx="994.5" cy="-72.5" rx="27" ry="18"/>
<text text-anchor="middle" x="994.5" y="-67.08" font-family="Times New Roman,serif" font-size="14.00">+</text>
</g>
<!-- 2862153643008&#45;&gt;2862154515216+ -->
<g id="edge13" class="edge">
<title>2862153643008&#45;&gt;2862154515216+</title>
<path fill="none" stroke="black" d="M928.53,-82.02C938.47,-80.56 947.92,-79.18 956.37,-77.94"/>
<polygon fill="black" stroke="black" points="956.73,-81.42 966.12,-76.51 955.72,-74.5 956.73,-81.42"/>
</g>
<!-- 2862153643008+ -->
<g id="node4" class="node">
<title>2862153643008+</title>
<ellipse fill="none" stroke="black" cx="608.25" cy="-100.5" rx="27" ry="18"/>
<text text-anchor="middle" x="608.25" y="-95.08" font-family="Times New Roman,serif" font-size="14.00">+</text>
</g>
<!-- 2862153643008+&#45;&gt;2862153643008 -->
<g id="edge2" class="edge">
<title>2862153643008+&#45;&gt;2862153643008</title>
<path fill="none" stroke="black" d="M635.42,-100.5C642.47,-100.5 650.61,-100.5 659.41,-100.5"/>
<polygon fill="black" stroke="black" points="659.38,-104 669.38,-100.5 659.38,-97 659.38,-104"/>
</g>
<!-- 2862184139360 -->
<g id="node5" class="node">
<title>2862184139360</title>
<polygon fill="none" stroke="black" points="325.5,-110.5 325.5,-146.5 545.25,-146.5 545.25,-110.5 325.5,-110.5"/>
<text text-anchor="middle" x="351.88" y="-123.2" font-family="Times New Roman,serif" font-size="14.00">x1*w1</text>
<polyline fill="none" stroke="black" points="378.25,-110.75 378.25,-146.5"/>
<text text-anchor="middle" x="420.75" y="-123.2" font-family="Times New Roman,serif" font-size="14.00">data &#45;1.5000</text>
<polyline fill="none" stroke="black" points="463.25,-110.75 463.25,-146.5"/>
<text text-anchor="middle" x="504.25" y="-123.2" font-family="Times New Roman,serif" font-size="14.00">grad 0.0099</text>
</g>
<!-- 2862184139360&#45;&gt;2862153643008+ -->
<g id="edge8" class="edge">
<title>2862184139360&#45;&gt;2862153643008+</title>
<path fill="none" stroke="black" d="M545.56,-110.61C554.32,-109.17 562.71,-107.8 570.34,-106.55"/>
<polygon fill="black" stroke="black" points="570.83,-110.02 580.13,-104.94 569.69,-103.11 570.83,-110.02"/>
</g>
<!-- 2862184139360* -->
<g id="node6" class="node">
<title>2862184139360*</title>
<ellipse fill="none" stroke="black" cx="262.5" cy="-128.5" rx="27" ry="18"/>
<text text-anchor="middle" x="262.5" y="-123.08" font-family="Times New Roman,serif" font-size="14.00">*</text>
</g>
<!-- 2862184139360*&#45;&gt;2862184139360 -->
<g id="edge3" class="edge">
<title>2862184139360*&#45;&gt;2862184139360</title>
<path fill="none" stroke="black" d="M289.82,-128.5C296.93,-128.5 305.11,-128.5 313.89,-128.5"/>
<polygon fill="black" stroke="black" points="313.78,-132 323.78,-128.5 313.78,-125 313.78,-132"/>
</g>
<!-- 2862154515216 -->
<g id="node7" class="node">
<title>2862154515216</title>
<polygon fill="none" stroke="black" points="1057.5,-54.5 1057.5,-90.5 1333.5,-90.5 1333.5,-54.5 1057.5,-54.5"/>
<text text-anchor="middle" x="1114.25" y="-67.2" font-family="Times New Roman,serif" font-size="14.00">x1*w1+x2*w2+b</text>
<polyline fill="none" stroke="black" points="1171,-54.75 1171,-90.5"/>
<text text-anchor="middle" x="1211.25" y="-67.2" font-family="Times New Roman,serif" font-size="14.00">data 3.0000</text>
<polyline fill="none" stroke="black" points="1251.5,-54.75 1251.5,-90.5"/>
<text text-anchor="middle" x="1292.5" y="-67.2" font-family="Times New Roman,serif" font-size="14.00">grad 0.0099</text>
</g>
<!-- 2862154515216&#45;&gt;2862154515456tanh -->
<g id="edge6" class="edge">
<title>2862154515216&#45;&gt;2862154515456tanh</title>
<path fill="none" stroke="black" d="M1333.9,-72.5C1342.32,-72.5 1350.32,-72.5 1357.59,-72.5"/>
<polygon fill="black" stroke="black" points="1357.58,-76 1367.58,-72.5 1357.58,-69 1357.58,-76"/>
</g>
<!-- 2862154515216+&#45;&gt;2862154515216 -->
<g id="edge4" class="edge">
<title>2862154515216+&#45;&gt;2862154515216</title>
<path fill="none" stroke="black" d="M1021.93,-72.5C1028.91,-72.5 1036.97,-72.5 1045.71,-72.5"/>
<polygon fill="black" stroke="black" points="1045.6,-76 1055.6,-72.5 1045.6,-69 1045.6,-76"/>
</g>
<!-- 2862184137008 -->
<g id="node9" class="node">
<title>2862184137008</title>
<polygon fill="none" stroke="black" points="0,-165.5 0,-201.5 199.5,-201.5 199.5,-165.5 0,-165.5"/>
<text text-anchor="middle" x="16.25" y="-178.2" font-family="Times New Roman,serif" font-size="14.00">w1</text>
<polyline fill="none" stroke="black" points="32.5,-165.75 32.5,-201.5"/>
<text text-anchor="middle" x="75" y="-178.2" font-family="Times New Roman,serif" font-size="14.00">data &#45;1.0000</text>
<polyline fill="none" stroke="black" points="117.5,-165.75 117.5,-201.5"/>
<text text-anchor="middle" x="158.5" y="-178.2" font-family="Times New Roman,serif" font-size="14.00">grad 0.0148</text>
</g>
<!-- 2862184137008&#45;&gt;2862184139360* -->
<g id="edge11" class="edge">
<title>2862184137008&#45;&gt;2862184139360*</title>
<path fill="none" stroke="black" d="M173.43,-165.03C182.28,-162.37 191.14,-159.51 199.5,-156.5 209.59,-152.87 220.33,-148.29 229.98,-143.89"/>
<polygon fill="black" stroke="black" points="231.37,-147.1 238.95,-139.7 228.41,-140.76 231.37,-147.1"/>
</g>
<!-- 2862184138592 -->
<g id="node10" class="node">
<title>2862184138592</title>
<polygon fill="none" stroke="black" points="2.25,-55.5 2.25,-91.5 197.25,-91.5 197.25,-55.5 2.25,-55.5"/>
<text text-anchor="middle" x="18.5" y="-68.2" font-family="Times New Roman,serif" font-size="14.00">w2</text>
<polyline fill="none" stroke="black" points="34.75,-55.75 34.75,-91.5"/>
<text text-anchor="middle" x="75" y="-68.2" font-family="Times New Roman,serif" font-size="14.00">data 1.0000</text>
<polyline fill="none" stroke="black" points="115.25,-55.75 115.25,-91.5"/>
<text text-anchor="middle" x="156.25" y="-68.2" font-family="Times New Roman,serif" font-size="14.00">grad 0.0296</text>
</g>
<!-- 2862184139168* -->
<g id="node13" class="node">
<title>2862184139168*</title>
<ellipse fill="none" stroke="black" cx="262.5" cy="-73.5" rx="27" ry="18"/>
<text text-anchor="middle" x="262.5" y="-68.08" font-family="Times New Roman,serif" font-size="14.00">*</text>
</g>
<!-- 2862184138592&#45;&gt;2862184139168* -->
<g id="edge14" class="edge">
<title>2862184138592&#45;&gt;2862184139168*</title>
<path fill="none" stroke="black" d="M197.51,-73.5C206.8,-73.5 215.79,-73.5 223.94,-73.5"/>
<polygon fill="black" stroke="black" points="223.72,-77 233.72,-73.5 223.72,-70 223.72,-77"/>
</g>
<!-- 2862184138640 -->
<g id="node11" class="node">
<title>2862184138640</title>
<polygon fill="none" stroke="black" points="1.5,-110.5 1.5,-146.5 198,-146.5 198,-110.5 1.5,-110.5"/>
<text text-anchor="middle" x="16.25" y="-123.2" font-family="Times New Roman,serif" font-size="14.00">x1</text>
<polyline fill="none" stroke="black" points="31,-110.75 31,-146.5"/>
<text text-anchor="middle" x="71.25" y="-123.2" font-family="Times New Roman,serif" font-size="14.00">data 1.5000</text>
<polyline fill="none" stroke="black" points="111.5,-110.75 111.5,-146.5"/>
<text text-anchor="middle" x="154.75" y="-123.2" font-family="Times New Roman,serif" font-size="14.00">grad &#45;0.0099</text>
</g>
<!-- 2862184138640&#45;&gt;2862184139360* -->
<g id="edge10" class="edge">
<title>2862184138640&#45;&gt;2862184139360*</title>
<path fill="none" stroke="black" d="M198.43,-128.5C207.33,-128.5 215.94,-128.5 223.79,-128.5"/>
<polygon fill="black" stroke="black" points="223.53,-132 233.53,-128.5 223.53,-125 223.53,-132"/>
</g>
<!-- 2862184139168 -->
<g id="node12" class="node">
<title>2862184139168</title>
<polygon fill="none" stroke="black" points="327.75,-55.5 327.75,-91.5 543,-91.5 543,-55.5 327.75,-55.5"/>
<text text-anchor="middle" x="354.12" y="-68.2" font-family="Times New Roman,serif" font-size="14.00">x2*w2</text>
<polyline fill="none" stroke="black" points="380.5,-55.75 380.5,-91.5"/>
<text text-anchor="middle" x="420.75" y="-68.2" font-family="Times New Roman,serif" font-size="14.00">data 3.0000</text>
<polyline fill="none" stroke="black" points="461,-55.75 461,-91.5"/>
<text text-anchor="middle" x="502" y="-68.2" font-family="Times New Roman,serif" font-size="14.00">grad 0.0099</text>
</g>
<!-- 2862184139168&#45;&gt;2862153643008+ -->
<g id="edge7" class="edge">
<title>2862184139168&#45;&gt;2862153643008+</title>
<path fill="none" stroke="black" d="M543.14,-90.37C552.77,-91.89 562.01,-93.35 570.33,-94.67"/>
<polygon fill="black" stroke="black" points="569.51,-98.08 579.94,-96.18 570.61,-91.17 569.51,-98.08"/>
</g>
<!-- 2862184139168*&#45;&gt;2862184139168 -->
<g id="edge5" class="edge">
<title>2862184139168*&#45;&gt;2862184139168</title>
<path fill="none" stroke="black" d="M289.82,-73.5C297.5,-73.5 306.41,-73.5 315.98,-73.5"/>
<polygon fill="black" stroke="black" points="315.97,-77 325.97,-73.5 315.97,-70 315.97,-77"/>
</g>
<!-- 2862184138688 -->
<g id="node14" class="node">
<title>2862184138688</title>
<polygon fill="none" stroke="black" points="3.75,-0.5 3.75,-36.5 195.75,-36.5 195.75,-0.5 3.75,-0.5"/>
<text text-anchor="middle" x="18.5" y="-13.2" font-family="Times New Roman,serif" font-size="14.00">x2</text>
<polyline fill="none" stroke="black" points="33.25,-0.75 33.25,-36.5"/>
<text text-anchor="middle" x="73.5" y="-13.2" font-family="Times New Roman,serif" font-size="14.00">data 3.0000</text>
<polyline fill="none" stroke="black" points="113.75,-0.75 113.75,-36.5"/>
<text text-anchor="middle" x="154.75" y="-13.2" font-family="Times New Roman,serif" font-size="14.00">grad 0.0099</text>
</g>
<!-- 2862184138688&#45;&gt;2862184139168* -->
<g id="edge9" class="edge">
<title>2862184138688&#45;&gt;2862184139168*</title>
<path fill="none" stroke="black" d="M173.43,-36.97C182.28,-39.63 191.14,-42.49 199.5,-45.5 209.59,-49.13 220.33,-53.71 229.98,-58.11"/>
<polygon fill="black" stroke="black" points="228.41,-61.24 238.95,-62.3 231.37,-54.9 228.41,-61.24"/>
</g>
<!-- 2862184138736 -->
<g id="node15" class="node">
<title>2862184138736</title>
<polygon fill="none" stroke="black" points="708.38,-27.5 708.38,-63.5 894.38,-63.5 894.38,-27.5 708.38,-27.5"/>
<text text-anchor="middle" x="720.12" y="-40.2" font-family="Times New Roman,serif" font-size="14.00">b</text>
<polyline fill="none" stroke="black" points="731.88,-27.75 731.88,-63.5"/>
<text text-anchor="middle" x="772.12" y="-40.2" font-family="Times New Roman,serif" font-size="14.00">data 1.5000</text>
<polyline fill="none" stroke="black" points="812.38,-27.75 812.38,-63.5"/>
<text text-anchor="middle" x="853.38" y="-40.2" font-family="Times New Roman,serif" font-size="14.00">grad 0.0099</text>
</g>
<!-- 2862184138736&#45;&gt;2862154515216+ -->
<g id="edge12" class="edge">
<title>2862184138736&#45;&gt;2862154515216+</title>
<path fill="none" stroke="black" d="M894.86,-58.57C916.8,-61.66 938.95,-64.79 956.69,-67.3"/>
<polygon fill="black" stroke="black" points="956.04,-70.74 966.44,-68.68 957.02,-63.81 956.04,-70.74"/>
</g>
</g>
</svg>
